<?xml version="1.0" encoding="UTF-8"?>
<svg width="105px" height="88px" viewBox="0 0 105 88" version="1.1" xmlns="http://www.w3.org/2000/svg" xmlns:xlink="http://www.w3.org/1999/xlink">
    <!-- Generator: Sketch 51.3 (57544) - http://www.bohemiancoding.com/sketch -->
    <title>Group 30</title>
    <desc>Created with Sketch.</desc>
    <defs>
        <polygon id="path-1" points="0.000306818182 1.00022727 104.943068 1.00022727 104.943068 88.9771705 0.000306818182 88.9771705"></polygon>
        <polygon id="path-3" points="0 88.9997727 104.943068 88.9997727 104.943068 1.02272727 0 1.02272727"></polygon>
    </defs>
    <g id="Page-1" stroke="none" stroke-width="1" fill="none" fill-rule="evenodd">
        <g id="INB_главная" transform="translate(-149.000000, -51.000000)">
            <g id="Group-30" transform="translate(149.000000, 50.000000)">
                <path d="M77.540625,62.4315682 L79.4091477,80.12475 L79.7313068,80.6442955 C79.756875,80.6371364 79.7824432,80.6299773 79.8100568,80.6228182 C80.1813068,80.5317955 80.5024432,80.4898636 80.8225568,80.4898636 C80.8225568,80.4898636 81.0690341,80.50725 81.1252841,80.5113409 L81.2633523,80.1513409 L79.3119886,61.6870227 L77.540625,62.4315682 Z" id="Fill-1" fill="#FFFFFF"></path>
                <path d="M62.8598864,49.7758295 C60.8717045,50.0407159 54.2945455,50.9202614 52.6489773,51.1401477 C52.6888636,51.251625 52.7338636,51.3600341 52.7655682,51.4756023 C52.8790909,51.8867386 52.9322727,52.2446932 52.9322727,52.5995795 C52.9322727,52.7192386 52.9169318,52.8399205 52.9067045,52.9606023 C54.70875,52.7202614 61.6469318,51.791625 63.3804545,51.5594659 L62.8598864,49.7758295 Z" id="Fill-3" fill="#FFFFFF"></path>
                <path d="M42.0857386,20.3824432 L52.2966477,19.0160795 C52.2557386,18.905625 52.2107386,18.7972159 52.1800568,18.6816477 C52.0655114,18.2664205 52.0113068,17.9094886 52.0113068,17.555625 C52.0123295,17.4359659 52.0266477,17.3142614 52.0378977,17.1925568 L41.563125,18.5947159 L42.0857386,20.3824432 Z" id="Fill-5" fill="#FFFFFF"></path>
                <path d="M83.8848068,37.9160795 L89.7276477,51.5111932 C89.8237841,51.4426705 89.9168523,51.3710795 90.0181023,51.3107386 C90.3402614,51.1153977 90.694125,50.9640341 91.0725341,50.8586932 C91.1952614,50.8259659 91.3046932,50.8075568 91.4182159,50.7850568 L85.8085568,37.7319886 L83.8848068,37.9160795 Z" id="Fill-7" fill="#FFFFFF"></path>
                <path d="M21.1918295,32.2281818 L15.242625,18.6340909 C15.1485341,18.6995455 15.0575114,18.7670455 14.9511477,18.8314773 C14.6341023,19.0257955 14.2792159,19.1792045 13.8977386,19.2876136 C13.7381932,19.3418182 13.6696705,19.3643182 13.5970568,19.3796591 C13.5858068,19.3817045 13.5725114,19.3806818 13.5612614,19.3827273 L19.2639886,32.4122727 L21.1918295,32.2281818 Z" id="Fill-9" fill="#FFFFFF"></path>
                <path d="M81.0293523,31.1985 C79.7826477,31.1985 78.769125,30.1849773 78.769125,28.9382727 C78.769125,27.6915682 79.7826477,26.6780455 81.0293523,26.6780455 C82.2750341,26.6780455 83.2885568,27.6915682 83.2885568,28.9382727 C83.2885568,30.1849773 82.2750341,31.1985 81.0293523,31.1985 M85.2317386,28.9382727 C85.2317386,27.9963409 84.9126477,27.0881591 84.326625,26.3466818 L90.3085568,18.9973636 C90.2042386,18.9441818 90.0968523,18.8950909 89.9956023,18.8327045 C89.6611705,18.6281591 89.3615114,18.3857727 89.1048068,18.1096364 C89.0219659,18.0216818 88.9606023,17.9214545 88.8869659,17.8283864 L82.8968523,25.1858864 C82.3098068,24.8903182 81.6706023,24.7348636 81.0293523,24.7348636 C80.670375,24.7348636 80.3042386,24.7870227 79.9350341,24.8913409 L71.2796932,8.48679545 C71.1876477,8.56452273 71.1150341,8.65963636 71.0158295,8.73020455 C71.0035568,8.73838636 70.9923068,8.74554545 70.9790114,8.75168182 C70.9636705,8.77213636 70.9462841,8.79054545 70.9248068,8.80486364 C70.6977614,8.95725 70.455375,9.08918182 70.2017386,9.19759091 C70.1475341,9.21906818 70.095375,9.23543182 70.0411705,9.24975 C69.9092386,9.29679545 69.7844659,9.32031818 69.6556023,9.35611364 L78.3048068,25.7483864 C78.0777614,25.9416818 77.8742386,26.1574773 77.6942386,26.3927045 L60.4009432,18.4450909 C60.375375,18.5586136 60.3559432,18.6690682 60.3201477,18.7887273 C60.1984432,19.1875909 60.0440114,19.5291818 59.8496932,19.8349773 C59.7852614,19.93725 59.6942386,20.016 59.6206023,20.1111136 L76.9302614,28.0679318 C76.8607159,28.3737273 76.8259432,28.6611136 76.8259432,28.9382727 C76.8259432,29.2594091 76.8688977,29.5846364 76.9568523,29.9262273 L64.2474205,36.2170227 C64.3220795,36.3100909 64.4120795,36.3888409 64.4795795,36.4880455 C64.6309432,36.711 64.762875,36.9666818 64.8794659,37.2642955 L66.6160568,37.0986136 L77.7627614,31.5820227 C78.1759432,32.0903182 78.7057159,32.4912273 79.3193523,32.76225 L78.6770795,35.9470227 L80.5926477,35.7639545 L81.1213977,33.1406591 C81.3392386,33.1345227 81.5601477,33.1079318 81.7974205,33.0588409 L82.8671932,35.5471364 L84.7909432,35.3630455 L83.4869659,32.3306591 C83.966625,31.9849773 84.3644659,31.5452045 84.6590114,31.0369091 L95.2994659,34.35975 L96.5298068,34.2421364 C96.6013977,33.8923636 96.7057159,33.5753182 96.8468523,33.2766818 C96.8979886,33.1682727 96.9726477,33.0752045 97.0319659,32.9719091 L85.2123068,29.2808864 C85.2245795,29.1683864 85.2317386,29.0538409 85.2317386,28.9382727" id="Fill-11" fill="#FFFFFF"></path>
                <path d="M77.0283409,51.0657955 C75.7816364,51.0657955 74.7681136,50.0522727 74.7681136,48.8055682 C74.7681136,47.5588636 75.7816364,46.5453409 77.0283409,46.5453409 C78.2740227,46.5453409 79.2875455,47.5588636 79.2875455,48.8055682 C79.2875455,50.0522727 78.2740227,51.0657955 77.0283409,51.0657955 M81.2307273,48.8055682 C81.2307273,47.1467045 80.2427727,45.6525 78.7362955,44.9815909 L80.0862955,38.2786364 L78.1707273,38.4617045 L76.93425,44.6031818 C74.7865227,44.65125 73.0264091,46.3223864 72.8412955,48.4373864 L65.3201591,49.4447727 L65.8407273,51.2284091 C67.6345909,50.9901136 73.1000455,50.2588636 73.1000455,50.2588636 C73.3485682,50.9307955 73.7648182,51.5301136 74.3037955,51.9934091 L69.6565227,60.7990909 C69.7710682,60.8318182 69.8845909,60.8532955 69.9991364,60.8942045 C70.3755,61.03125 70.7170909,61.2102273 71.01675,61.4260227 C71.1128864,61.4945455 71.2008409,61.5722727 71.2908409,61.6489773 L75.933,52.8504545 C76.1334545,52.9056818 76.3369773,52.9455682 76.5415227,52.9690909 L77.27175,59.8827273 L79.0431136,59.1392045 L78.3711818,52.7768182 C79.2169773,52.4894318 79.9553864,51.93 80.4687955,51.1905682 L88.0247045,54.2464773 C88.0451591,54.1329545 88.0625455,54.0204545 88.0932273,53.8997727 C88.18425,53.53875 88.3315227,53.1807955 88.5268636,52.8371591 C88.5861818,52.7348864 88.6547045,52.6397727 88.7222045,52.5426136 L81.1673182,49.4867045 C81.2102727,49.2484091 81.2307273,49.0234091 81.2307273,48.8055682" id="Fill-13" fill="#FFFFFF"></path>
                <path d="M27.9164659,19.0900227 C29.1631705,19.0900227 30.1766932,20.1035455 30.1766932,21.3492273 C30.1766932,22.5959318 29.1631705,23.6094545 27.9164659,23.6094545 C26.6697614,23.6094545 25.6562386,22.5959318 25.6562386,21.3492273 C25.6562386,20.1035455 26.6697614,19.0900227 27.9164659,19.0900227 M23.7130568,21.3492273 C23.7130568,23.0254773 24.717375,24.5268409 26.2453295,25.1895682 L24.9699886,31.8669545 L26.8783977,31.6849091 L28.0514659,25.5505909 C30.1807841,25.4830909 31.9183977,23.8191136 32.1024886,21.7184318 L39.6246477,20.7120682 L39.1030568,18.9243409 L31.8447614,19.8959318 C31.5962386,19.2229773 31.1789659,18.6236591 30.6410114,18.1613864 L35.2821477,9.36593182 C35.101125,9.31581818 34.9180568,9.27081818 34.7431705,9.19718182 C34.4762386,9.08365909 34.2103295,8.93127273 33.9290795,8.72979545 C33.8319205,8.66127273 33.7439659,8.58252273 33.6539659,8.50684091 L29.0107841,17.3033182 C28.6426023,17.199 28.2764659,17.1468409 27.9164659,17.1468409 C26.5460114,17.1468409 25.257375,17.8351364 24.4749886,18.96525 L16.9190795,15.9103636 C16.898625,16.0238864 16.8812386,16.1363864 16.8505568,16.2570682 C16.7595341,16.6191136 16.6132841,16.9760455 16.4179432,17.3186591 C16.3545341,17.4270682 16.2901023,17.5170682 16.2246477,17.6142273 L23.7774886,20.6680909 C23.7335114,20.9084318 23.7130568,21.1303636 23.7130568,21.3492273" id="Fill-15" fill="#FFFFFF"></path>
                <path d="M24.1221477,43.4771591 C22.8754432,43.4771591 21.8619205,42.4636364 21.8619205,41.2169318 C21.8619205,39.9702273 22.8754432,38.9567045 24.1221477,38.9567045 C25.3688523,38.9567045 26.382375,39.9702273 26.382375,41.2169318 C26.382375,42.4636364 25.3688523,43.4771591 24.1221477,43.4771591 M27.4490795,43.7747727 L44.5460114,51.6998864 C44.5726023,51.5853409 44.5910114,51.4748864 44.6278295,51.3552273 C44.7485114,50.9625 44.9029432,50.6198864 45.1003295,50.31 C45.1657841,50.20875 45.2568068,50.1279545 45.3294205,50.0328409 L28.2181705,42.1005682 C28.2907841,41.7896591 28.3255568,41.5022727 28.3255568,41.2169318 C28.3255568,40.8896591 28.2805568,40.5582955 28.1905568,40.2126136 L40.7097614,33.9525 C40.6351023,33.8594318 40.5451023,33.7817045 40.4765795,33.6804545 C40.3170341,33.4482955 40.1810114,33.1885227 40.0644205,32.8909091 L38.3963523,33.0504545 L27.3764659,38.5598864 C26.9571477,38.0526136 26.4110114,37.6445455 25.7932841,37.3776136 L26.3997614,34.1959091 L24.4903295,34.3789773 L23.9871477,37.0165909 C23.7733977,37.02375 23.5565795,37.0523864 23.3264659,37.1025 L22.2270341,34.5947727 L20.2991932,34.7788636 L21.6399886,37.8398864 C21.1674886,38.1865909 20.7757841,38.6253409 20.4843068,39.1305682 L9.68430682,35.7923864 L8.41510227,35.9130682 C8.348625,36.2454545 8.24430682,36.5665909 8.10419318,36.8682955 C8.05305682,36.9767045 7.97839773,37.0697727 7.91907955,37.1730682 L19.9371477,40.8865909 C19.924875,40.995 19.9187386,41.1054545 19.9187386,41.2169318 C19.9187386,42.1435227 20.2306705,43.0404545 20.8033977,43.7768182 L14.6701023,51.1742045 C14.7744205,51.2294318 14.8828295,51.2785227 14.9830568,51.3409091 C15.3041932,51.5413636 15.6007841,51.7878409 15.863625,52.0731818 C15.9444205,52.1621591 16.0057841,52.2623864 16.0794205,52.3564773 L22.2188523,44.9539773 C22.8140795,45.2597727 23.4645341,45.4203409 24.1221477,45.4203409 C24.4739659,45.4203409 24.8257841,45.37125 25.1888523,45.2710227 L33.6764659,61.6295455 C33.7674886,61.5538636 33.8554432,61.4761364 33.9515795,61.4065909 C34.2481705,61.1969318 34.5918068,61.0210227 34.9732841,60.885 C35.089875,60.8430682 35.202375,60.8226136 35.3158977,60.7909091 L26.8252159,44.4282955 C27.0563523,44.2329545 27.2649886,44.0140909 27.4490795,43.7747727" id="Fill-17" fill="#FFFFFF"></path>
                <g id="Group-21" transform="translate(0.000000, 0.022500)">
                    <mask id="mask-2" fill="white">
                        <use xlink:href="#path-1"></use>
                    </mask>
                    <g id="Clip-20"></g>
                    <path d="M100.68883,37.3662614 C99.4145114,37.3662614 98.3774659,36.3292159 98.3774659,35.0548977 C98.3774659,33.7805795 99.4145114,32.7435341 100.68883,32.7435341 C101.96417,32.7435341 103.001216,33.7805795 103.001216,35.0548977 C103.001216,36.3292159 101.96417,37.3662614 100.68883,37.3662614 Z M97.0325795,32.9491023 C96.9722386,33.0523977 96.8975795,33.1464886 96.8464432,33.253875 C96.7053068,33.5525114 96.6009886,33.8695568 96.5304205,34.2193295 L95.2990568,34.3379659 L84.7905341,35.3412614 L82.8667841,35.5243295 L80.5932614,35.7411477 L78.6776932,35.9242159 L66.6166705,37.0758068 L64.8790568,37.2414886 C64.7624659,36.943875 64.6305341,36.6881932 64.4801932,36.4652386 C64.4116705,36.3660341 64.3216705,36.2872841 64.2470114,36.1942159 C63.5116705,35.2880795 62.4449659,34.6969432 61.2800795,34.6069432 L58.3387159,21.2419432 C58.8449659,20.9586477 59.2673523,20.552625 59.6212159,20.0883068 C59.6938295,19.9942159 59.7848523,19.9144432 59.8492841,19.8121705 C60.044625,19.5073977 60.1980341,19.1647841 60.3197386,18.7659205 C60.3555341,18.6462614 60.3749659,18.5358068 60.4005341,18.4222841 C60.4731477,18.1134205 60.5212159,17.8158068 60.5212159,17.5335341 C60.5212159,16.8329659 60.3453068,16.1416023 60.0129205,15.5228523 L66.5338295,9.00296591 C66.648375,9.06535227 66.7659886,9.12364773 66.8876932,9.17478409 C67.4143977,9.39671591 67.9717841,9.50921591 68.5445114,9.50921591 C68.9014432,9.50921591 69.2737159,9.43967045 69.6551932,9.33330682 C69.7840568,9.29853409 69.9088295,9.27501136 70.0407614,9.22694318 C70.0949659,9.212625 70.1481477,9.19728409 70.2013295,9.17478409 C70.4549659,9.06739773 70.698375,8.93546591 70.9243977,8.78205682 C70.945875,8.76773864 70.9642841,8.74932955 70.9786023,8.728875 C70.9918977,8.72273864 71.0041705,8.71557955 71.0154205,8.70739773 C71.114625,8.63682955 71.1872386,8.54171591 71.2792841,8.46398864 C71.4684886,8.30342045 71.6648523,8.15001136 71.8213295,7.96182955 L87.9753068,14.7435341 C87.9589432,14.8948977 87.9507614,15.0431932 87.9507614,15.1884205 C87.9507614,16.1446705 88.2903068,17.0548977 88.8865568,17.8066023 C88.9601932,17.8986477 89.0225795,17.998875 89.1043977,18.0868295 C89.362125,18.3629659 89.6617841,18.606375 89.9951932,18.8098977 C90.0974659,18.8722841 90.2038295,18.921375 90.3091705,18.9745568 C90.9064432,19.2762614 91.5507614,19.4439886 92.2042841,19.4439886 C92.3607614,19.4439886 92.5182614,19.4347841 92.6757614,19.4173977 L97.9632614,31.7964886 C97.585875,32.1145568 97.282125,32.5154659 97.0325795,32.9491023 Z M92.6757614,50.6934205 C92.5182614,50.6760341 92.3597386,50.6668295 92.2042841,50.6668295 C91.9567841,50.6668295 91.6949659,50.7046705 91.4188295,50.7619432 C91.3042841,50.7854659 91.195875,50.8028523 91.0731477,50.8366023 C90.6947386,50.9409205 90.3398523,51.0933068 90.0176932,51.287625 C89.9174659,51.3489886 89.823375,51.4205795 89.7272386,51.4891023 C89.3375795,51.771375 88.9970114,52.120125 88.7218977,52.5200114 C88.6543977,52.6171705 88.585875,52.7122841 88.5265568,52.8145568 C88.3312159,53.1581932 88.1839432,53.5161477 88.0939432,53.8771705 C88.0622386,53.9978523 88.045875,54.1103523 88.0243977,54.223875 C87.9804205,54.4662614 87.9507614,54.6994432 87.9507614,54.921375 C87.9507614,55.0686477 87.9589432,55.2159205 87.9753068,55.3672841 L79.0428068,59.1166023 L77.2724659,59.860125 L71.8213295,62.1479659 C71.6638295,61.9587614 71.4817841,61.7869432 71.2905341,61.626375 C71.2005341,61.5496705 71.1125795,61.4719432 71.0164432,61.4034205 C70.7167841,61.187625 70.3751932,61.0086477 69.9988295,60.8716023 C69.8842841,60.8306932 69.7717841,60.8092159 69.6562159,60.7764886 C69.2951932,60.6752386 68.9341705,60.6056932 68.5813295,60.6016023 L65.8404205,51.2058068 L65.3198523,49.4221705 L63.2703068,42.3991023 C64.2245114,41.7762614 64.8841705,40.8016023 65.1081477,39.6868295 L78.1704205,38.4391023 L80.0859886,38.2560341 L83.8843977,37.8939886 L85.8081477,37.7098977 L96.7687159,36.6636477 C97.0315568,37.3069432 97.4406477,37.8735341 97.9632614,38.3153523 L92.6757614,50.6934205 Z M92.2042841,57.2327386 C90.9299659,57.2327386 89.8929205,56.1956932 89.8929205,54.921375 C89.8929205,53.6470568 90.9299659,52.6100114 92.2042841,52.6100114 C93.479625,52.6100114 94.5166705,53.6470568 94.5166705,54.921375 C94.5166705,56.1956932 93.479625,57.2327386 92.2042841,57.2327386 Z M81.2631477,80.1285341 L81.1250795,80.4885341 C81.0688295,80.4844432 80.8223523,80.4680795 80.8223523,80.4680795 C80.5032614,80.4680795 80.1811023,80.5100114 79.8098523,80.6000114 C79.7832614,80.6071705 79.7566705,80.6143295 79.7311023,80.6214886 L79.4089432,80.1019432 L71.7262159,67.6686477 C72.4186023,66.8883068 72.7990568,65.8962614 72.7990568,64.855125 C72.7990568,64.708875 72.7918977,64.5616023 72.7745114,64.4092159 L77.5404205,62.4087614 L79.3128068,61.6652386 L88.9264432,57.6285341 C89.1268977,57.8698977 89.3549659,58.0897841 89.6065568,58.2820568 L81.2631477,80.1285341 Z M80.8223523,87.0329659 C79.5480341,87.0329659 78.5109886,85.9969432 78.5109886,84.722625 C78.5109886,83.4483068 79.5480341,82.4112614 80.8223523,82.4112614 C82.0966705,82.4112614 83.1337159,83.4483068 83.1337159,84.722625 C83.1337159,85.9969432 82.0966705,87.0329659 80.8223523,87.0329659 Z M68.5445114,67.1675114 C67.2701932,67.1675114 66.2341705,66.1304659 66.2341705,64.855125 C66.2341705,63.5808068 67.2701932,62.5437614 68.5445114,62.5437614 C69.8188295,62.5437614 70.855875,63.5808068 70.855875,64.855125 C70.855875,66.1304659 69.8188295,67.1675114 68.5445114,67.1675114 Z M65.7330341,61.6764886 L52.7791705,53.6685341 C52.8466705,53.425125 52.8834886,53.1806932 52.9059886,52.9383068 C52.9172386,52.817625 52.9325795,52.6969432 52.9325795,52.5772841 C52.9325795,52.221375 52.8793977,51.8644432 52.765875,51.4522841 C52.7331477,51.3377386 52.6881477,51.2293295 52.6482614,51.1178523 C52.5541705,50.8570568 52.4426932,50.6034205 52.3005341,50.3681932 L59.1630341,42.692625 C59.7234886,42.9605795 60.3125795,43.097625 60.9190568,43.1037614 L62.8601932,49.7535341 L63.3807614,51.5371705 L66.2311023,61.3042159 C66.052125,61.4197841 65.8864432,61.5435341 65.7330341,61.6764886 Z M40.4737159,63.6278523 C40.3918977,63.3568295 40.2824659,63.0950114 40.1464432,62.8444432 L46.6673523,56.3235341 C47.2850795,56.6559205 47.9774659,56.8318295 48.6780341,56.8318295 C49.7181477,56.8318295 50.7112159,56.451375 51.4915568,55.7579659 L64.2255341,63.6278523 L40.4737159,63.6278523 Z M38.4098523,61.108875 C37.792125,60.7764886 37.1007614,60.6016023 36.4001932,60.6016023 C36.0401932,60.6016023 35.6812159,60.6680795 35.3161023,60.7683068 C35.2025795,60.8010341 35.0890568,60.8204659 34.9734886,60.8623977 C34.5920114,60.9984205 34.248375,61.1743295 33.9517841,61.3839886 C33.854625,61.4535341 33.7666705,61.5312614 33.6766705,61.6069432 C33.4751932,61.7736477 33.2870114,61.9516023 33.1223523,62.1479659 L16.9693977,55.3683068 C16.9857614,55.2159205 16.9939432,55.067625 16.9939432,54.921375 C16.9939432,53.9825114 16.6615568,53.0814886 16.079625,52.333875 C16.0059886,52.2397841 15.944625,52.1395568 15.8638295,52.0505795 C15.6009886,51.7652386 15.3043977,51.5187614 14.9832614,51.3193295 C14.8830341,51.2559205 14.774625,51.2068295 14.6703068,51.1516023 C14.0668977,50.8396705 13.4072386,50.6668295 12.7393977,50.6668295 C12.5839432,50.6668295 12.4254205,50.6760341 12.2679205,50.6934205 L6.98144318,38.3153523 C7.36292045,37.9931932 7.66871591,37.5881932 7.91928409,37.1514886 C7.97860227,37.0471705 8.05326136,36.9541023 8.10439773,36.8456932 C8.24348864,36.5439886 8.34882955,36.2228523 8.41428409,35.8914886 L9.68451136,35.7697841 L20.298375,34.7562614 L22.2272386,34.5721705 L24.4905341,34.356375 L26.3989432,34.1733068 L38.3965568,33.0278523 L40.064625,32.8693295 C40.1812159,33.1669432 40.3172386,33.4256932 40.4767841,33.658875 C40.5442841,33.7591023 40.6342841,33.8368295 40.7099659,33.9298977 C41.4412159,34.828875 42.483375,35.4005795 43.6625795,35.4956932 L46.6049659,48.868875 C46.1038295,49.1491023 45.6845114,49.5520568 45.329625,50.0102386 C45.2570114,50.106375 45.1659886,50.1861477 45.0995114,50.2873977 C44.9031477,50.5983068 44.7487159,50.9398977 44.6280341,51.332625 C44.5901932,51.4522841 44.5728068,51.5627386 44.5451932,51.6772841 C44.4725795,51.9902386 44.4234886,52.2909205 44.4234886,52.5772841 C44.4234886,53.278875 44.598375,53.9692159 44.9307614,54.5879659 L38.4098523,61.108875 Z M36.4001932,67.1675114 C35.125875,67.1675114 34.0888295,66.1304659 34.0888295,64.855125 C34.0888295,63.5808068 35.125875,62.5437614 36.4001932,62.5437614 C37.6745114,62.5437614 38.7105341,63.5808068 38.7105341,64.855125 C38.7105341,66.1304659 37.6745114,67.1675114 36.4001932,67.1675114 Z M12.7393977,57.2327386 C11.4650795,57.2327386 10.4280341,56.1956932 10.4280341,54.921375 C10.4280341,53.6470568 11.4650795,52.6100114 12.7393977,52.6100114 C14.0147386,52.6100114 15.0517841,53.6470568 15.0517841,54.921375 C15.0517841,56.1956932 14.0147386,57.2327386 12.7393977,57.2327386 Z M4.25485227,37.3662614 C2.98053409,37.3662614 1.94348864,36.3292159 1.94348864,35.0548977 C1.94348864,33.7805795 2.98053409,32.7435341 4.25485227,32.7435341 C5.53019318,32.7435341 6.56723864,33.7805795 6.56723864,35.0548977 C6.56723864,36.3292159 5.53019318,37.3662614 4.25485227,37.3662614 Z M12.2679205,19.4173977 C12.4254205,19.4347841 12.5829205,19.4439886 12.7393977,19.4439886 C13.0165568,19.4439886 13.2926932,19.4133068 13.5616705,19.3611477 C13.5718977,19.3580795 13.5851932,19.3591023 13.5974659,19.3570568 C13.6690568,19.3417159 13.7375795,19.3192159 13.8981477,19.2650114 C14.279625,19.1566023 14.6334886,19.0031932 14.9515568,18.808875 C15.0568977,18.7444432 15.1479205,18.6779659 15.2420114,18.6114886 C15.4312159,18.4775114 15.6040568,18.3404659 15.7482614,18.1962614 C15.9170114,18.0275114 16.0734886,17.8198977 16.2248523,17.5918295 C16.2903068,17.4946705 16.3547386,17.4046705 16.4181477,17.2952386 C16.6134886,16.9536477 16.7597386,16.5967159 16.8497386,16.2346705 C16.8814432,16.1139886 16.8978068,16.0014886 16.9192841,15.8879659 C16.9642841,15.6455795 16.9939432,15.411375 16.9939432,15.1884205 C16.9939432,15.0431932 16.9857614,14.8948977 16.9693977,14.7435341 L33.1223523,7.96182955 C33.2798523,8.15103409 33.4618977,8.32285227 33.6541705,8.48444318 C33.7441705,8.560125 33.832125,8.638875 33.9292841,8.70739773 C34.2105341,8.908875 34.4764432,9.06126136 34.743375,9.17478409 C34.9172386,9.24842045 35.1013295,9.29342045 35.2823523,9.34353409 C35.6351932,9.43864773 35.9931477,9.50614773 36.363375,9.50921591 L39.1032614,18.9019432 L39.6248523,20.6896705 L41.6743977,27.7106932 C40.7191705,28.3335341 40.0595114,29.3092159 39.8365568,30.4250114 L26.8786023,31.6625114 L24.9701932,31.8445568 L21.1922386,32.2055795 L19.2643977,32.3896705 L8.17598864,33.4481932 C7.91314773,32.8028523 7.50405682,32.2372841 6.98144318,31.7964886 L12.2679205,19.4173977 Z M12.7393977,12.8770568 C14.0147386,12.8770568 15.0517841,13.9141023 15.0517841,15.1884205 C15.0517841,16.4637614 14.0147386,17.4997841 12.7393977,17.4997841 C11.4650795,17.4997841 10.4280341,16.4637614 10.4280341,15.1884205 C10.4280341,13.9141023 11.4650795,12.8770568 12.7393977,12.8770568 Z M36.4001932,2.94330682 C37.6745114,2.94330682 38.7105341,3.98035227 38.7105341,5.25467045 C38.7105341,6.52898864 37.6745114,7.56603409 36.4001932,7.56603409 C35.125875,7.56603409 34.0888295,6.52898864 34.0888295,5.25467045 C34.0888295,3.98035227 35.125875,2.94330682 36.4001932,2.94330682 Z M39.2106477,8.43432955 L52.1655341,16.4422841 C52.0980341,16.6846705 52.0612159,16.9280795 52.0387159,17.1704659 C52.0264432,17.2921705 52.012125,17.4128523 52.0111023,17.5335341 C52.0111023,17.886375 52.0653068,18.2443295 52.1798523,18.6585341 C52.2115568,18.7741023 52.2565568,18.8825114 52.2974659,18.9929659 C52.3915568,19.2547841 52.5030341,19.5084205 52.6441705,19.742625 L45.7806477,27.4171705 C45.2191705,27.1502386 44.6300795,27.0111477 44.0256477,27.0070568 L42.0855341,20.3603523 L41.5629205,18.572625 L38.7136023,8.80660227 C38.8915568,8.69205682 39.0572386,8.56830682 39.2106477,8.43432955 Z M56.2656477,19.8448977 C54.9913295,19.8448977 53.9553068,18.8078523 53.9553068,17.5335341 C53.9553068,16.2592159 54.9913295,15.2221705 56.2656477,15.2221705 C57.5409886,15.2221705 58.5770114,16.2592159 58.5770114,17.5335341 C58.5770114,18.8078523 57.5409886,19.8448977 56.2656477,19.8448977 Z M43.9888295,33.5719432 C42.7134886,33.5719432 41.6774659,32.5348977 41.6774659,31.2605795 C41.6774659,29.9862614 42.7134886,28.9502386 43.9888295,28.9502386 C45.2631477,28.9502386 46.2991705,29.9862614 46.2991705,31.2605795 C46.2991705,32.5348977 45.2631477,33.5719432 43.9888295,33.5719432 Z M50.9893977,52.5772841 C50.9893977,53.8516023 49.953375,54.8886477 48.6780341,54.8886477 C47.4026932,54.8886477 46.3666705,53.8516023 46.3666705,52.5772841 C46.3666705,51.3029659 47.4026932,50.2659205 48.6780341,50.2659205 C49.953375,50.2659205 50.9893977,51.3029659 50.9893977,52.5772841 Z M60.955875,36.5378523 C62.2301932,36.5378523 63.2672386,37.5748977 63.2672386,38.8492159 C63.2672386,40.1235341 62.2301932,41.1605795 60.955875,41.1605795 C59.6815568,41.1605795 58.6455341,40.1235341 58.6455341,38.8492159 C58.6455341,37.5748977 59.6815568,36.5378523 60.955875,36.5378523 Z M56.7013295,38.8492159 C56.7013295,39.6285341 56.9191705,40.3884205 57.3323523,41.0593295 L50.4688295,48.7328523 C49.9973523,48.508875 49.5043977,48.3748977 49.0012159,48.3360341 L46.060875,34.9700114 C47.410875,34.2162614 48.243375,32.8100114 48.243375,31.2605795 C48.243375,30.4822841 48.0245114,29.721375 47.6113295,29.0504659 L54.4748523,21.3769432 C54.9432614,21.5998977 55.4259886,21.7297841 55.9404205,21.7696705 L58.8838295,35.1408068 C57.5338295,35.8945568 56.7013295,37.3008068 56.7013295,38.8492159 Z M64.4709886,6.48194318 C64.5528068,6.75194318 64.6622386,7.01478409 64.7982614,7.266375 L58.2763295,13.7872841 C57.6586023,13.4548977 56.9672386,13.2789886 56.2656477,13.2789886 C55.2245114,13.2789886 54.2324659,13.6584205 53.4531477,14.3518295 L40.7201932,6.48194318 L64.4709886,6.48194318 Z M68.5445114,2.94330682 C69.8188295,2.94330682 70.855875,3.98035227 70.855875,5.25467045 C70.855875,6.52898864 69.8188295,7.56603409 68.5445114,7.56603409 C67.2701932,7.56603409 66.2341705,6.52898864 66.2341705,5.25467045 C66.2341705,3.98035227 67.2701932,2.94330682 68.5445114,2.94330682 Z M92.2042841,12.8770568 C93.479625,12.8770568 94.5166705,13.9141023 94.5166705,15.1884205 C94.5166705,16.4637614 93.479625,17.4997841 92.2042841,17.4997841 C90.9299659,17.4997841 89.8929205,16.4637614 89.8929205,15.1884205 C89.8929205,13.9141023 90.9299659,12.8770568 92.2042841,12.8770568 Z M100.68883,30.8003523 C100.533375,30.8003523 100.374852,30.8095568 100.217352,30.8269432 L94.930875,18.448875 C95.8912159,17.6450114 96.4588295,16.4381932 96.4588295,15.1884205 C96.4588295,12.8422841 94.5504205,10.933875 92.2042841,10.933875 C90.9432614,10.933875 89.7292841,11.5096705 88.9254205,12.4812614 L72.7745114,5.69955682 C72.7918977,5.54921591 72.7990568,5.40092045 72.7990568,5.25467045 C72.7990568,3.83921591 72.0984886,2.52092045 70.923375,1.72728409 C70.7014432,1.57592045 70.4580341,1.44398864 70.2013295,1.33455682 C69.6756477,1.112625 69.1182614,1.000125 68.5445114,1.000125 C67.9717841,1.000125 67.4143977,1.112625 66.8876932,1.33557955 C65.725875,1.82648864 64.8320114,2.82671591 64.4709886,4.02739773 L40.4737159,4.02739773 C40.1126932,2.82569318 39.2188295,1.82648864 38.0570114,1.33455682 C37.5303068,1.112625 36.9729205,1.000125 36.4001932,1.000125 C35.8264432,1.000125 35.2690568,1.112625 34.743375,1.33455682 C33.1653068,2.00239773 32.144625,3.54160227 32.144625,5.25467045 C32.144625,5.40194318 32.1528068,5.54921591 32.1701932,5.69955682 L16.0182614,12.4802386 C15.933375,12.3759205 15.843375,12.2756932 15.7482614,12.1805795 C15.157125,11.5884205 14.4136023,11.1875114 13.5964432,11.0208068 C13.3172386,10.9635341 13.0288295,10.933875 12.7393977,10.933875 C10.3932614,10.933875 8.48485227,12.8422841 8.48485227,15.1884205 C8.48485227,16.4371705 9.05348864,17.6439886 10.0138295,18.4478523 L4.72632955,30.8269432 C4.56882955,30.8095568 4.41030682,30.8003523 4.25485227,30.8003523 C1.90871591,30.8003523 0.000306818182,32.7087614 0.000306818182,35.0548977 C0.000306818182,37.4010341 1.90871591,39.3094432 4.25485227,39.3094432 C4.41030682,39.3094432 4.56882955,39.3012614 4.72632955,39.2828523 L10.0138295,51.6629659 C9.05348864,52.4668295 8.48485227,53.672625 8.48485227,54.921375 C8.48485227,57.2675114 10.3932614,59.1759205 12.7393977,59.1759205 C14.0014432,59.1759205 15.2154205,58.6011477 16.0182614,57.6285341 L32.1701932,64.4092159 C32.1528068,64.5616023 32.144625,64.7078523 32.144625,64.855125 C32.144625,67.2012614 34.0540568,69.1096705 36.4001932,69.1096705 C38.2830341,69.1096705 39.9367841,67.8721705 40.4737159,66.0823977 L64.4709886,66.0823977 C65.0079205,67.8721705 66.6616705,69.1096705 68.5445114,69.1096705 C68.9014432,69.1096705 69.2665568,69.0575114 69.6367841,68.9572841 L77.6416705,81.9091023 C76.9482614,82.686375 76.5678068,83.6794432 76.5678068,84.722625 C76.5678068,87.0687614 78.4762159,88.9771705 80.8223523,88.9771705 C83.1684886,88.9771705 85.0768977,87.0687614 85.0768977,84.722625 C85.0768977,83.4104659 84.4601932,82.1658068 83.4200795,81.3619432 L91.8995114,59.1605795 C91.9997386,59.1697841 92.1020114,59.1759205 92.2042841,59.1759205 C94.5504205,59.1759205 96.4588295,57.2675114 96.4588295,54.921375 C96.4588295,53.6716023 95.8912159,52.4658068 94.930875,51.6619432 L100.217352,39.2828523 C100.374852,39.3012614 100.533375,39.3094432 100.68883,39.3094432 C103.034966,39.3094432 104.943375,37.4010341 104.943375,35.0548977 C104.943375,32.7087614 103.034966,30.8003523 100.68883,30.8003523 Z" id="Fill-19" fill="#FFFFFF" mask="url(#mask-2)"></path>
                </g>
                <path d="M41.0380568,84.3458523 C39.7616932,84.3458523 38.7266932,85.3808523 38.7266932,86.6572159 C38.7266932,87.9335795 39.7616932,88.9685795 41.0380568,88.9685795 C42.3144205,88.9685795 43.3494205,87.9335795 43.3494205,86.6572159 C43.3494205,85.3808523 42.3144205,84.3458523 41.0380568,84.3458523" id="Fill-22" fill="#FFFFFF"></path>
                <mask id="mask-4" fill="white">
                    <use xlink:href="#path-3"></use>
                </mask>
                <g id="Clip-25"></g>
                <polygon id="Fill-24" fill="#FFFFFF" mask="url(#mask-4)" points="62.1265909 88.9680682 64.20375 88.9680682 64.20375 75.0651136 62.1265909 75.0651136"></polygon>
                <path d="M49.6084091,84.4946591 L52.72875,77.5840909 L55.8501136,84.4946591 L49.6084091,84.4946591 Z M57.87,88.9680682 L60.1455682,88.9680682 L53.8670455,75.0651136 L51.5904545,75.0651136 L45.3119318,88.9680682 L47.5875,88.9680682 L48.6715909,86.56875 L56.7869318,86.56875 L57.87,88.9680682 Z" id="Fill-26" fill="#FFFFFF" mask="url(#mask-4)"></path>
                <polygon id="Fill-27" fill="#FFFFFF" mask="url(#mask-4)" points="19.6277727 85.2207955 11.39175 75.0651136 9.21947727 75.0651136 9.21947727 88.9680682 11.4940227 88.9680682 11.4940227 78.8072727 19.7351591 88.9680682 21.9012955 88.9680682 21.9012955 75.0651136 19.6277727 75.0651136"></polygon>
                <path d="M26.4821932,80.3003523 L31.867875,80.3003523 C32.2892386,80.3003523 32.6308295,80.1418295 32.9110568,79.8155795 C33.1493523,79.5466023 33.2720795,79.2162614 33.274125,78.8337614 C33.2700341,78.4123977 33.1258295,78.0708068 32.8302614,77.7916023 C32.7024205,77.6627386 32.5234432,77.5573977 32.3004886,77.477625 C32.0673068,77.3937614 31.811625,77.3518295 31.5406023,77.3518295 L26.4821932,77.3518295 L26.4821932,80.3003523 Z M26.4821932,82.5902386 L26.4821932,86.6944432 L31.9721932,86.6944432 C32.632875,86.6944432 33.1677614,86.4939886 33.5635568,86.0971705 C33.9286705,85.7320568 34.106625,85.2595568 34.106625,84.6520568 C34.106625,84.1202386 33.9613977,83.6712614 33.6740114,83.316375 C33.4940114,83.0872841 33.2618523,82.9031932 32.9806023,82.7722841 C32.7013977,82.6403523 32.3986705,82.573875 32.0836705,82.573875 L26.4821932,82.5902386 Z M24.2086705,88.9679659 L24.2086705,75.0783068 L31.5988977,75.0783068 C32.8957159,75.0783068 33.9286705,75.4925114 34.6732159,76.3096705 C34.9319659,76.6134205 35.1487841,76.9734205 35.3144659,77.3773977 C35.4770795,77.7731932 35.5568523,78.1986477 35.5568523,78.6793295 C35.5568523,79.2796705 35.400375,79.8370568 35.0915114,80.3381932 C34.9074205,80.6194432 34.6732159,80.8843295 34.3950341,81.1216023 L34.2825341,81.2177386 L34.4113977,81.2903523 C34.9288977,81.5848977 35.3512841,81.9694432 35.6662841,82.4337614 C36.1408295,83.1200114 36.3811705,83.912625 36.3811705,84.7860341 C36.3811705,85.3812614 36.2604886,85.9366023 36.0211705,86.4356932 C35.7869659,86.9296705 35.4781023,87.3581932 35.1048068,87.7079659 C34.6987841,88.1139886 34.2181023,88.4259205 33.6760568,88.637625 C33.116625,88.8564886 32.5449205,88.9679659 31.9773068,88.9679659 L24.2086705,88.9679659 Z" id="Fill-28" fill="#FFFFFF" mask="url(#mask-4)"></path>
                <polygon id="Fill-29" fill="#FFFFFF" mask="url(#mask-4)" points="4.63806818 88.9680682 6.91261364 88.9680682 6.91261364 75.0651136 4.63806818 75.0651136"></polygon>
            </g>
        </g>
    </g>
</svg>